<svg width="46" height="46" viewBox="0 0 46 46" fill="none" xmlns="http://www.w3.org/2000/svg">
<path fill-rule="evenodd" clip-rule="evenodd" d="M18.8333 0.604248H18.7634C15.9057 0.604248 13.6652 0.604227 11.8645 0.751352C10.0308 0.901165 8.51602 1.21129 7.14489 1.90989C4.89087 3.05837 3.05829 4.89096 1.90981 7.14498C1.21121 8.5161 0.901081 10.0309 0.751268 11.8645C0.604143 13.6653 0.604164 15.9057 0.604164 18.7635V18.8334V27.1667V27.2367C0.604164 30.0945 0.604143 32.3349 0.751268 34.1357C0.901081 35.9692 1.21121 37.484 1.90981 38.8551C3.05829 41.1092 4.89087 42.9417 7.14489 44.0903C8.51602 44.7888 10.0308 45.099 11.8645 45.2488C13.6651 45.3959 15.9056 45.3959 18.7633 45.3959H18.8333H31.3333H31.5017C33.2767 45.3961 34.3579 45.3961 35.2906 45.2484C40.4165 44.4365 44.4365 40.4165 45.2483 35.2907C45.396 34.358 45.396 33.2767 45.3958 31.5017V31.3334V29.2501C45.3958 28.3872 44.6962 27.6876 43.8333 27.6876C42.9704 27.6876 42.2708 28.3872 42.2708 29.2501V31.3334C42.2708 33.3286 42.266 34.1442 42.1619 34.8017C41.5617 38.5905 38.5904 41.5617 34.8017 42.162C34.1442 42.2661 33.3285 42.2709 31.3333 42.2709H18.8333C15.8906 42.2709 13.7775 42.2697 12.1189 42.1342C10.4785 42.0001 9.42077 41.7426 8.56362 41.3059C6.8976 40.457 5.54308 39.1024 4.69421 37.4365C4.25748 36.5792 3.99991 35.5215 3.86589 33.8811C3.73037 32.2226 3.72916 30.1095 3.72916 27.1667V18.8334C3.72916 15.8907 3.73037 13.7776 3.86589 12.119C3.99991 10.4786 4.25748 9.42085 4.69421 8.56371C5.54308 6.89769 6.8976 5.54316 8.56362 4.69429C9.42077 4.25756 10.4785 4 12.1189 3.86598C13.7775 3.73046 15.8906 3.72925 18.8333 3.72925H29.25C30.1129 3.72925 30.8125 3.02969 30.8125 2.16675C30.8125 1.30381 30.1129 0.604248 29.25 0.604248H18.8333ZM42.8548 11.6049C43.465 10.9947 43.465 10.0054 42.8548 9.39523C42.2446 8.78504 41.2554 8.78504 40.6452 9.39523L22.9287 27.1115L15.6956 20.7826C15.0461 20.2142 14.059 20.2801 13.4908 20.9295C12.9225 21.5788 12.9883 22.5661 13.6377 23.1342L21.971 30.4259C22.5902 30.9676 23.5231 30.9365 24.1048 30.3549L42.8548 11.6049Z" fill="#534DE0"/>
</svg>
