<svg width="30" height="25" viewBox="0 0 30 25" fill="none" xmlns="http://www.w3.org/2000/svg">
<path fill-rule="evenodd" clip-rule="evenodd" d="M11.093 0H11.0465C9.32761 0 7.97347 -1.41455e-05 6.88373 0.091143C5.77196 0.184143 4.84353 0.377329 3.99984 0.817457C2.62144 1.5365 1.50077 2.68386 0.798446 4.09507C0.368553 4.95886 0.17986 5.90939 0.0890232 7.04763C-1.39828e-05 8.16331 0 9.54969 0 11.3096V11.3571V13.6429V13.6904C0 15.4503 -1.39828e-05 16.8367 0.0890232 17.9524C0.17986 19.0906 0.368553 20.0411 0.798446 20.905C1.50077 22.3161 2.62144 23.4634 3.99984 24.1826C4.84353 24.6227 5.77196 24.8159 6.88373 24.9089C7.97347 25 9.32759 25 11.0465 25H11.093H18.907H18.9534C20.6724 25 22.0266 25 23.1163 24.9089C24.228 24.8159 25.1565 24.6227 26.0002 24.1826C27.3786 23.4634 28.4992 22.3161 29.2016 20.905C29.6315 20.0411 29.8201 19.0906 29.911 17.9524C30 16.8367 30 15.4503 30 13.6903V13.6429V11.3571V11.3097C30 9.54976 30 8.16334 29.911 7.04763C29.8201 5.90939 29.6315 4.95886 29.2016 4.09507C28.4992 2.68386 27.3786 1.5365 26.0002 0.817457C25.1565 0.377329 24.228 0.184143 23.1163 0.091143C22.0266 -1.41455e-05 20.6724 0 18.9534 0H18.907H11.093ZM4.95006 2.72676C5.44952 2.4662 6.07183 2.30906 7.05416 2.22689C8.04871 2.14369 9.31746 2.14286 11.093 2.14286H18.907C20.6826 2.14286 21.9513 2.14369 22.9458 2.22689C23.9281 2.30906 24.5505 2.4662 25.05 2.72676C26.0346 3.24036 26.8351 4.0599 27.3367 5.06791C27.5912 5.57927 27.7447 6.2164 27.8249 7.22211C27.9061 8.24034 27.907 9.5393 27.907 11.3571V13.6429C27.907 15.4607 27.9061 16.7597 27.8249 17.7779C27.7447 18.7836 27.5912 19.4207 27.3367 19.9321C26.8351 20.9401 26.0346 21.7596 25.05 22.2733C24.5505 22.5339 23.9281 22.691 22.9458 22.7731C21.9513 22.8563 20.6826 22.8571 18.907 22.8571H11.093C9.31746 22.8571 8.04871 22.8563 7.05416 22.7731C6.07183 22.691 5.44952 22.5339 4.95006 22.2733C3.96548 21.7596 3.165 20.9401 2.66334 19.9321C2.40885 19.4207 2.25536 18.7836 2.1751 17.7779C2.09383 16.7597 2.09302 15.4607 2.09302 13.6429V11.3571C2.09302 9.5393 2.09383 8.24034 2.1751 7.22211C2.25536 6.2164 2.40885 5.57927 2.66334 5.06791C3.165 4.0599 3.96548 3.24036 4.95006 2.72676ZM5.75177 5.14117C5.24996 4.84759 4.61069 5.02609 4.32394 5.53986C4.03718 6.05361 4.21153 6.70811 4.71335 7.00169L13.7886 12.311C14.5393 12.7501 15.4607 12.7501 16.2114 12.311L25.2867 7.00169C25.7884 6.70811 25.9628 6.05361 25.6761 5.53986C25.3893 5.02609 24.75 4.84759 24.2482 5.14117L15.173 10.4504C15.0659 10.5131 14.9341 10.5131 14.827 10.4504L5.75177 5.14117Z" fill="#534DE0"/>
</svg>
