<svg width="25" height="25" viewBox="0 0 25 25" fill="none" xmlns="http://www.w3.org/2000/svg">
<path d="M13.5849 18.906L14.2833 19.3069L14.6336 18.5819L15.6325 16.5147C15.6326 16.5144 15.6328 16.5142 15.6329 16.5139C15.7073 16.3619 15.839 16.2438 16.0003 16.1867C16.1606 16.1328 16.3388 16.1437 16.4933 16.2171C18.7057 17.2979 21.1037 17.8444 23.6111 17.8444C23.9636 17.8444 24.25 18.1309 24.25 18.4833V23.6111C24.25 23.9636 23.9636 24.25 23.6111 24.25C11.0059 24.25 0.75 13.9941 0.75 1.38889C0.75 1.03644 1.03644 0.75 1.38889 0.75H6.51667C6.86912 0.75 7.15556 1.03644 7.15556 1.38889C7.15556 3.89989 7.70247 6.29908 8.78737 8.51007C8.85954 8.65877 8.87142 8.83528 8.81606 8.99967C8.75811 9.16355 8.64144 9.29335 8.49029 9.3664L6.41848 10.3662L5.69239 10.7166L6.09426 11.4155C7.88517 14.5301 10.4694 17.1174 13.5849 18.906Z" stroke="#534DE0" stroke-width="1.5"/>
</svg>
