<svg width="163" height="40" viewBox="0 0 163 40" fill="none" xmlns="http://www.w3.org/2000/svg">
<path d="M17.2369 5.87131C22.3541 11.0962 27.2558 16.1596 32.2114 21.169C31.9959 21.4384 31.7266 21.6538 31.5112 21.9232C28.2792 19.984 26.0708 16.2134 21.3845 16.2673C23.0543 18.3142 24.5625 20.0917 25.963 21.9232C27.3097 23.7007 27.3635 25.3167 25.4782 27.0403C22.4079 29.8952 19.4992 32.9655 16.8598 35.6588C11.2578 30.4877 5.92517 25.5321 0 20.0379C2.6394 17.6678 4.794 15.5132 7.11021 13.6818C10.3421 11.0962 12.1197 8.02592 11.4733 3.82443C10.9885 0.861847 12.1735 0 15.2439 0C62.5914 0.10773 109.939 0.0538636 157.286 0.107729C158.525 0.107729 160.842 1.07731 160.842 1.4005C160.626 3.7167 158.579 2.96259 157.125 2.96259C111.178 3.01645 65.1769 3.01646 19.2299 3.01646C17.9371 3.01646 16.6982 3.01646 15.0284 3.01646C15.0284 6.40997 14.9207 9.64188 15.0823 12.8199C15.19 14.9745 14.2204 15.9441 12.4429 16.8598C11.3656 17.3985 10.1805 18.4758 9.85733 19.5531C9.64187 20.2533 10.7192 22.0847 11.4194 22.2463C12.4967 22.4618 13.7895 21.6538 14.9745 21.2229C15.7286 20.9536 16.4828 20.6842 17.6678 20.2533C17.2369 23.3236 15.6209 24.5625 13.3586 24.9935C10.9885 25.4244 9.10322 24.4009 7.91819 22.3002C6.67929 20.0379 7.11021 17.9371 8.72616 15.998C9.58801 14.9745 10.5576 14.005 11.4733 13.0354C11.3117 12.8738 11.0962 12.7122 10.9346 12.5506C8.56456 15.0823 6.19449 17.6139 3.66283 20.3072C6.62542 22.9466 9.9112 25.8553 13.2508 28.764C15.567 26.3401 18.6374 23.1082 21.977 19.6608C17.5062 16.6444 15.2977 12.2274 17.2369 5.87131Z" fill="#534DE0"/>
<path d="M117.534 28.7639C118.611 23.2697 119.85 17.8293 120.712 12.335C121.197 9.15699 122.651 8.40288 125.614 9.42632C125.614 18.0448 125.614 26.7709 125.614 35.551C124.698 35.551 123.89 35.551 122.867 35.551C122.867 29.3565 122.867 23.3774 122.867 17.3445C122.705 17.2906 122.49 17.2906 122.328 17.2368C121.089 23.3235 119.85 29.4103 118.611 35.551C117.588 35.551 116.726 35.551 115.649 35.551C114.356 29.5719 113.063 23.5929 111.77 17.6138C111.609 17.6138 111.393 17.6677 111.232 17.6677C111.232 23.5929 111.232 29.4642 111.232 35.3894C111.016 35.6048 110.801 35.7664 110.531 35.9819C109.831 35.4432 108.592 34.8507 108.592 34.3121C108.538 26.0707 108.646 17.8293 108.7 9.58792C108.7 9.53405 108.808 9.42632 108.915 9.31859C111.555 8.40288 112.955 9.157 113.494 12.1734C114.464 17.7216 115.756 23.2697 116.888 28.8178C117.103 28.8178 117.318 28.8178 117.534 28.7639Z" fill="#242424"/>
<path d="M103.26 38.8907C99.6506 40.0757 99.9738 37.9211 99.9738 35.8742C96.1494 35.8742 92.4326 35.8742 88.5005 35.8742C88.5005 26.8248 88.5005 18.0987 88.5005 9.21091C89.4701 9.21091 90.278 9.21091 91.4092 9.21091C91.4092 17.183 91.4092 24.9396 91.4092 32.9655C93.6177 32.9655 95.5568 32.9655 97.8192 32.9655C97.8192 25.1012 97.8192 17.2907 97.8192 9.26477C98.9504 9.21091 99.8122 9.10318 100.728 9.04932C100.836 9.58797 101.051 9.91116 101.051 10.2882C101.051 17.0752 101.051 23.8084 101.159 30.5954C101.159 31.5111 102.182 32.3191 102.398 33.2887C102.775 35.1201 102.99 37.0054 103.26 38.8907Z" fill="#242424"/>
<path d="M55.535 35.6587C54.4038 35.6587 53.6497 35.6587 52.8417 35.6587C52.734 35.3355 52.5185 35.0661 52.5185 34.7968C52.4646 26.9325 52.4108 19.122 52.5185 11.2577C52.5185 10.5575 53.5419 9.2647 54.1345 9.21084C57.6357 8.99538 61.1908 9.1031 64.8536 9.1031C64.8536 18.0447 64.8536 26.717 64.8536 35.6048C63.9918 35.6587 63.2377 35.7125 62.2142 35.7125C62.2142 27.7943 62.2142 20.0377 62.2142 12.0118C59.8442 12.0118 57.7434 12.0118 55.4811 12.0118C55.5349 19.8762 55.535 27.5789 55.535 35.6587Z" fill="#242424"/>
<path d="M45.7316 18.3143C45.1391 17.5602 44.4389 16.9138 44.0079 16.1059C43.7386 15.6211 44.1157 14.7592 43.8463 14.3822C42.9845 13.3587 41.9611 11.7966 40.9376 11.7428C39.9681 11.6889 38.1905 13.1433 37.975 14.1667C37.4903 16.5368 37.6518 19.0146 37.6518 21.4924C37.6518 24.3472 37.598 27.2021 37.7596 30.0031C37.8673 31.7806 38.6214 33.2889 40.776 33.3427C42.8768 33.3966 43.7386 32.05 44.0079 30.2185C44.1695 28.9796 44.1695 27.6869 44.2234 26.2325C45.0853 26.2325 45.9471 26.2325 46.8089 26.2325C46.8089 27.7946 46.9167 29.1412 46.8089 30.4879C46.4319 34.2046 44.385 36.0899 40.9376 36.0899C37.3287 36.0899 35.0124 34.043 34.9047 30.2724C34.7431 25.4784 34.8509 20.6844 34.797 15.8365C34.797 11.258 36.8977 8.72632 40.8299 8.72632C44.7082 8.72632 46.9705 11.3118 47.0244 15.7288C47.0244 16.3752 46.8089 17.0754 46.7012 17.7218C46.2703 17.9911 46.001 18.1527 45.7316 18.3143Z" fill="#242424"/>
<path d="M134.986 20.7921C137.141 20.7921 139.08 20.7921 141.181 20.7921C141.235 21.7617 141.289 22.462 141.342 23.5393C139.134 23.5393 137.141 23.5393 134.986 23.5393C134.986 26.8251 134.986 29.8415 134.986 33.1811C137.087 33.1811 139.08 33.235 141.019 33.1811C143.174 33.0734 142.851 34.2585 142.635 35.6589C139.026 35.6589 135.579 35.6589 131.97 35.6589C131.97 26.8789 131.97 18.2066 131.97 9.31885C135.471 9.31885 138.972 9.31885 142.527 9.31885C143.659 11.9044 141.989 11.9582 140.104 11.9044C138.434 11.8505 136.818 11.9044 134.986 11.9044C134.986 14.9747 134.986 17.7757 134.986 20.7921Z" fill="#242424"/>
<path d="M82.1984 9.31885C82.1445 10.1268 82.1445 10.8809 82.0907 11.8505C79.5051 11.8505 77.0273 11.8505 74.4418 11.8505C74.4418 14.867 74.4418 17.668 74.4418 20.846C76.5425 20.846 78.5894 20.846 81.0672 20.846C80.1515 25.5861 76.4887 22.5158 74.4957 24.0779C74.4957 26.7712 74.4957 29.7876 74.4957 33.0734C76.9196 33.0734 79.3435 33.0734 81.8213 33.0734C82.4677 34.6355 82.7909 35.8205 80.6363 35.8205C77.6737 35.8205 74.765 35.8205 71.5331 35.8205C71.5331 26.9866 71.5331 18.2605 71.5331 9.37271C75.0343 9.31884 78.4817 9.31885 82.1984 9.31885Z" fill="#242424"/>
<path d="M147.914 9.21118C152.116 9.21118 156.155 9.21118 160.195 9.21118C160.788 11.2042 160.788 11.2042 155.671 12.2276C155.671 19.9304 155.671 27.6331 155.671 35.5513C154.647 35.5513 153.839 35.5513 152.762 35.5513C152.762 27.7408 152.762 19.9304 152.762 12.3354C151.2 10.9349 147.537 13.5204 147.914 9.21118Z" fill="#242424"/>
<path d="M86.0278 6.58593C128.538 6.58593 163 6.40165 163 6.17432C163 5.94699 128.538 5.7627 86.0278 5.7627C43.5172 5.7627 9.05554 5.94699 9.05554 6.17432C9.05554 6.40165 43.5172 6.58593 86.0278 6.58593Z" fill="#242424"/>
<path d="M15.19 19.9302C14.0589 20.792 13.197 21.8693 12.6584 21.7077C11.8504 21.4923 11.2579 20.4688 10.5576 19.7686C11.3117 19.1761 11.9581 18.1526 12.82 18.0449C13.3586 17.991 14.1127 19.0684 15.19 19.9302Z" fill="#534DE0"/>
</svg>
