<svg width="30" height="30" viewBox="0 0 30 30" fill="none" xmlns="http://www.w3.org/2000/svg">
<path d="M16.3766 22.5571L17.0749 22.958L17.4253 22.233L18.6242 19.7519C18.6243 19.7516 18.6245 19.7513 18.6247 19.7509C18.7312 19.5329 18.9202 19.3638 19.1514 19.2823C19.3816 19.2045 19.6364 19.2204 19.857 19.3253C22.4911 20.6123 25.3464 21.2633 28.3333 21.2633C28.8391 21.2633 29.25 21.6742 29.25 22.18V28.3333C29.25 28.8391 28.8391 29.25 28.3333 29.25C13.1242 29.25 0.75 16.8758 0.75 1.66667C0.75 1.16088 1.16088 0.75 1.66667 0.75H7.82C8.32579 0.75 8.73667 1.16088 8.73667 1.66667C8.73667 4.65767 9.38803 7.51408 10.6796 10.1462C10.784 10.361 10.8003 10.6142 10.721 10.8486C10.6387 11.0824 10.4715 11.2694 10.2538 11.3747C10.2537 11.3747 10.2537 11.3747 10.2536 11.3747L7.76737 12.5745L7.04127 12.9249L7.44315 13.6239C9.57906 17.3385 12.661 20.4241 16.3766 22.5571Z" stroke="#534DE0" stroke-width="1.5"/>
</svg>
