<svg width="121" height="121" fill="none" xmlns="http://www.w3.org/2000/svg"><g filter="url(#filter0_d_1_40)"><circle cx="59.5" cy="59.5" r="56.5" fill="#534DE0"/></g><path d="M78.175 67.087c-4.079 0-7.969-.889-11.556-2.642a2.403 2.403 0 00-1.81-.109 2.383 2.383 0 00-1.357 1.205l-1.701 3.522a33.28 33.28 0 01-12.275-12.275l3.526-1.702a2.368 2.368 0 001.096-3.166c-1.758-3.583-2.646-7.473-2.646-11.557A2.364 2.364 0 0049.088 38h-8.725A2.364 2.364 0 0038 40.363c0 22.153 18.022 40.175 40.175 40.175a2.364 2.364 0 002.364-2.363V69.45a2.364 2.364 0 00-2.364-2.363z" fill="#fff"/><defs><filter id="filter0_d_1_40" x="0" y="0" width="121" height="121" filterUnits="userSpaceOnUse" color-interpolation-filters="sRGB"><feFlood flood-opacity="0" result="BackgroundImageFix"/><feColorMatrix in="SourceAlpha" values="0 0 0 0 0 0 0 0 0 0 0 0 0 0 0 0 0 0 127 0" result="hardAlpha"/><feOffset dx="1" dy="1"/><feGaussianBlur stdDeviation="2"/><feComposite in2="hardAlpha" operator="out"/><feColorMatrix values="0 0 0 0 0.0399442 0 0 0 0 0.0302819 0 0 0 0 0.267007 0 0 0 0.25 0"/><feBlend in2="BackgroundImageFix" result="effect1_dropShadow_1_40"/><feBlend in="SourceGraphic" in2="effect1_dropShadow_1_40" result="shape"/></filter></defs></svg>