<svg width="30" height="25" fill="none" xmlns="http://www.w3.org/2000/svg"><path fill-rule="evenodd" clip-rule="evenodd" d="M11.093 0h-.046c-1.72 0-3.074 0-4.163.091C5.772.184 4.844.377 4 .817A7.415 7.415 0 00.798 4.095C.368 4.96.18 5.91.09 7.048 0 8.163 0 9.55 0 11.31v2.38c0 1.76 0 3.147.089 4.262.09 1.139.28 2.09.71 2.953a7.416 7.416 0 003.2 3.278c.845.44 1.773.633 2.885.726C7.974 25 9.328 25 11.046 25h7.907c1.72 0 3.074 0 4.163-.091 1.112-.093 2.04-.286 2.884-.726a7.417 7.417 0 003.202-3.278c.43-.864.618-1.814.709-2.953C30 16.837 30 15.45 30 13.69v-2.38c0-1.76 0-3.147-.089-4.262-.09-1.139-.28-2.09-.71-2.953a7.416 7.416 0 00-3.2-3.278c-.845-.44-1.773-.633-2.885-.726C22.026 0 20.672 0 18.953 0h-7.86zM4.95 2.727c.5-.26 1.122-.418 2.104-.5.995-.083 2.263-.084 4.039-.084h7.814c1.776 0 3.044 0 4.039.084.982.082 1.604.24 2.104.5a5.296 5.296 0 012.287 2.34c.254.512.408 1.15.488 2.155.081 1.018.082 2.317.082 4.135v2.286c0 1.818 0 3.117-.082 4.135-.08 1.006-.234 1.643-.488 2.154a5.297 5.297 0 01-2.287 2.341c-.5.26-1.122.418-2.104.5-.995.083-2.263.084-4.039.084h-7.814c-1.776 0-3.044 0-4.039-.084-.982-.082-1.604-.24-2.104-.5a5.297 5.297 0 01-2.287-2.34c-.254-.512-.408-1.15-.488-2.155-.081-1.018-.082-2.317-.082-4.135v-2.286c0-1.818 0-3.117.082-4.135.08-1.006.234-1.643.488-2.154A5.296 5.296 0 014.95 2.727zm.802 2.414a1.033 1.033 0 00-1.428.399 1.085 1.085 0 00.39 1.462l9.075 5.309c.75.44 1.672.44 2.422 0l9.076-5.31c.501-.293.676-.947.39-1.461a1.034 1.034 0 00-1.429-.399l-9.075 5.31a.342.342 0 01-.346 0L5.752 5.14z" fill="#534DE0"/></svg>