<svg width="163" height="40" fill="none" xmlns="http://www.w3.org/2000/svg"><path d="M17.237 5.871C22.354 11.096 27.256 16.16 32.21 21.17c-.215.27-.484.485-.7.754-3.232-1.939-5.44-5.71-10.127-5.656 1.67 2.047 3.178 3.825 4.579 5.656 1.347 1.778 1.4 3.394-.485 5.117-3.07 2.855-5.979 5.925-8.618 8.619C11.258 30.488 5.925 25.532 0 20.038c2.64-2.37 4.794-4.525 7.11-6.356 3.232-2.586 5.01-5.656 4.363-9.858C10.988.862 12.173 0 15.243 0c47.348.108 94.696.054 142.043.108 1.239 0 3.556.97 3.556 1.293-.216 2.316-2.263 1.562-3.717 1.562-45.947.053-91.948.053-137.895.053h-4.202c0 3.394-.107 6.626.054 9.804.108 2.155-.862 3.124-2.64 4.04-1.076.538-2.261 1.616-2.585 2.693-.215.7.862 2.532 1.562 2.693 1.078.216 2.37-.592 3.556-1.023.754-.27 1.508-.539 2.693-.97-.431 3.07-2.047 4.31-4.31 4.74-2.37.431-4.255-.592-5.44-2.693-1.239-2.262-.808-4.363.808-6.302.862-1.023 1.832-1.993 2.747-2.963-.161-.161-.377-.323-.538-.484-2.37 2.531-4.74 5.063-7.272 7.756a1127.08 1127.08 0 009.588 8.457c2.316-2.424 5.386-5.656 8.726-9.103-4.47-3.017-6.68-7.434-4.74-13.79z" fill="#534DE0"/><path d="M117.534 28.764c1.077-5.494 2.316-10.935 3.178-16.429.485-3.178 1.939-3.932 4.902-2.909v26.125h-2.747V17.344c-.162-.053-.377-.053-.539-.107-1.239 6.087-2.478 12.173-3.717 18.314h-2.962l-3.879-17.937c-.161 0-.377.054-.538.054v17.721c-.216.216-.431.377-.701.593-.7-.539-1.939-1.131-1.939-1.67-.054-8.241.054-16.483.108-24.724 0-.054.108-.162.215-.27 2.64-.915 4.04-.161 4.579 2.855.97 5.549 2.262 11.097 3.394 16.645.215 0 .43 0 .646-.054zM103.26 38.89c-3.61 1.186-3.286-.969-3.286-3.016H88.5V9.211h2.91v23.755h6.41V9.264c1.13-.054 1.992-.162 2.908-.216.108.539.323.862.323 1.24 0 6.786 0 13.52.108 20.306 0 .916 1.023 1.724 1.239 2.694.377 1.831.592 3.716.862 5.602zm-47.725-3.231h-2.693c-.108-.323-.323-.593-.323-.862-.054-7.864-.108-15.675 0-23.54 0-.7 1.023-1.992 1.616-2.046 3.5-.216 7.056-.108 10.719-.108v26.502c-.862.054-1.616.108-2.64.108V12.011h-6.733c.054 7.864.054 15.567.054 23.647zm-9.803-17.345c-.593-.754-1.293-1.4-1.724-2.208-.27-.485.108-1.347-.162-1.724-.861-1.023-1.885-2.585-2.908-2.64-.97-.053-2.748 1.401-2.963 2.425-.485 2.37-.323 4.848-.323 7.325 0 2.855-.054 5.71.108 8.511.107 1.778.861 3.286 3.016 3.34 2.1.054 2.963-1.293 3.232-3.125.161-1.238.161-2.531.215-3.985h2.586c0 1.562.108 2.908 0 4.255-.377 3.717-2.424 5.602-5.871 5.602-3.61 0-5.926-2.047-6.033-5.818-.162-4.794-.054-9.588-.108-14.435 0-4.579 2.1-7.11 6.033-7.11 3.878 0 6.14 2.585 6.194 7.002 0 .646-.215 1.346-.323 1.993-.43.27-.7.43-.97.592zm89.254 2.478h6.195c.054.97.108 1.67.161 2.747h-6.356v9.642c2.101 0 4.094.054 6.033 0 2.155-.108 1.832 1.078 1.616 2.478H131.97V9.319h10.557c1.132 2.585-.538 2.64-2.423 2.585-1.67-.053-3.286 0-5.118 0v8.888zM82.198 9.319c-.053.808-.053 1.562-.107 2.531h-7.65v8.996h6.626c-.915 4.74-4.578 1.67-6.571 3.232v8.995h7.325c.647 1.563.97 2.748-1.185 2.748h-9.103V9.373c3.501-.054 6.949-.054 10.665-.054zm65.716-.108h12.281c.593 1.993.593 1.993-4.524 3.017V35.55h-2.909V12.335c-1.562-1.4-5.225 1.185-4.848-3.124zM86.028 6.586c42.51 0 76.972-.184 76.972-.412 0-.227-34.462-.411-76.972-.411-42.51 0-76.972.184-76.972.411 0 .228 34.461.412 76.972.412z" fill="#242424"/><path d="M15.19 19.93c-1.131.862-1.993 1.94-2.532 1.778-.808-.216-1.4-1.24-2.1-1.94.754-.592 1.4-1.615 2.262-1.723.539-.054 1.293 1.023 2.37 1.885z" fill="#534DE0"/></svg>