<svg width="30" height="30" fill="none" xmlns="http://www.w3.org/2000/svg"><path d="M16.377 22.557l.698.401.35-.725 1.2-2.481v-.001a.93.93 0 01.526-.469.945.945 0 01.706.043c2.634 1.287 5.49 1.938 8.476 1.938.506 0 .917.411.917.917v6.153c0 .506-.41.917-.917.917C13.124 29.25.75 16.876.75 1.667c0-.506.41-.917.917-.917H7.82c.506 0 .917.41.917.917 0 2.99.651 5.847 1.943 8.48a.92.92 0 01-.426 1.229v-.001l-2.487 1.2-.726.35.402.699a24.22 24.22 0 008.934 8.933z" stroke="#534DE0" stroke-width="1.5"/></svg>