<svg width="121" height="121" viewBox="0 0 121 121" fill="none" xmlns="http://www.w3.org/2000/svg">
<g filter="url(#filter0_d_1_40)">
<circle cx="59.5" cy="59.5" r="56.5" fill="#534DE0"/>
</g>
<path d="M78.1752 67.0869C74.0962 67.0869 70.2063 66.1983 66.6189 64.4447C66.0565 64.1753 65.4042 64.1328 64.8087 64.336C64.2131 64.544 63.7263 64.9788 63.4522 65.5413L61.7506 69.0625C56.646 66.1321 52.4111 61.8924 49.4759 56.7878L53.0019 55.0863C53.5691 54.8121 53.9992 54.3253 54.2072 53.7298C54.4104 53.1342 54.3726 52.482 54.0984 51.9195C52.3402 48.3368 51.4516 44.4469 51.4516 40.3632C51.4516 39.0587 50.3929 38 49.0884 38H40.3632C39.0587 38 38 39.0587 38 40.3632C38 62.5163 56.0221 80.5385 78.1752 80.5385C79.4797 80.5385 80.5385 79.4797 80.5385 78.1752V69.4501C80.5385 68.1456 79.4797 67.0869 78.1752 67.0869Z" fill="white"/>
<defs>
<filter id="filter0_d_1_40" x="0" y="0" width="121" height="121" filterUnits="userSpaceOnUse" color-interpolation-filters="sRGB">
<feFlood flood-opacity="0" result="BackgroundImageFix"/>
<feColorMatrix in="SourceAlpha" type="matrix" values="0 0 0 0 0 0 0 0 0 0 0 0 0 0 0 0 0 0 127 0" result="hardAlpha"/>
<feOffset dx="1" dy="1"/>
<feGaussianBlur stdDeviation="2"/>
<feComposite in2="hardAlpha" operator="out"/>
<feColorMatrix type="matrix" values="0 0 0 0 0.0399442 0 0 0 0 0.0302819 0 0 0 0 0.267007 0 0 0 0.25 0"/>
<feBlend mode="normal" in2="BackgroundImageFix" result="effect1_dropShadow_1_40"/>
<feBlend mode="normal" in="SourceGraphic" in2="effect1_dropShadow_1_40" result="shape"/>
</filter>
</defs>
</svg>
