<svg width="46" height="46" fill="none" xmlns="http://www.w3.org/2000/svg"><path fill-rule="evenodd" clip-rule="evenodd" d="M18.833.604h-.07c-2.857 0-5.098 0-6.899.147-1.833.15-3.348.46-4.72 1.159A11.98 11.98 0 001.91 7.145C1.21 8.516.9 10.031.75 11.865c-.147 1.8-.147 4.04-.147 6.899v8.473c0 2.858 0 5.098.147 6.899.15 1.833.46 3.348 1.159 4.72a11.98 11.98 0 005.235 5.234c1.371.699 2.886 1.009 4.72 1.159 1.8.147 4.04.147 6.898.147h12.739c1.775 0 2.856 0 3.789-.148a11.979 11.979 0 009.957-9.957c.148-.933.148-2.014.148-3.79V29.25a1.563 1.563 0 00-3.125 0v2.083c0 1.996-.005 2.811-.11 3.469a8.855 8.855 0 01-7.36 7.36c-.657.104-1.473.109-3.468.109h-12.5c-2.942 0-5.055-.001-6.714-.137-1.64-.134-2.698-.391-3.555-.828a8.855 8.855 0 01-3.87-3.87c-.437-.857-.694-1.914-.828-3.555-.136-1.658-.137-3.771-.137-6.714v-8.334c0-2.942.001-5.055.137-6.714.134-1.64.391-2.698.828-3.555a8.854 8.854 0 013.87-3.87c.857-.436 1.915-.694 3.555-.828 1.659-.136 3.772-.137 6.714-.137H29.25a1.563 1.563 0 000-3.125H18.833zm24.022 11a1.562 1.562 0 10-2.21-2.209L22.93 27.112l-7.233-6.33a1.562 1.562 0 10-2.058 2.352l8.333 7.292c.62.542 1.552.51 2.134-.071l18.75-18.75z" fill="#534DE0"/></svg>